<svg width="16" height="16" viewBox="0 0 16 16" fill="none" xmlns="http://www.w3.org/2000/svg">
<rect width="16" height="16" fill="#3F347E"/>
<g clip-path="url(#clip0_58_2)">
<path d="M6.75005 3C6.06255 3 5.50005 3.5625 5.50005 4.25V5.5H3.11255C3.03755 5.5 3.00005 5.55 3.00005 5.6125V8.625C3.00005 8.975 3.27505 9.25 3.62505 9.25H12.375C12.725 9.25 13 8.975 13 8.625V5.6125C13 5.5375 12.95 5.5 12.8875 5.5H10.5V4.25C10.5 3.5625 9.93755 3 9.25005 3L6.75005 3ZM6.75005 4.25H9.25005V5.5H6.75005V4.25ZM3.00005 10.3875V12.8875C3.00005 12.95 3.05005 13 3.11255 13H12.875C12.9375 13 12.9875 12.95 12.9875 12.8875V10.3875C12.7875 10.4625 12.5875 10.5 12.3625 10.5H3.61255C3.38755 10.5 3.18755 10.45 2.98755 10.3875H3.00005Z" fill="white"/>
</g>
<defs>
<clipPath id="clip0_58_2">
<rect width="10" height="10" fill="white" transform="translate(3 3)"/>
</clipPath>
</defs>
</svg>
